<svg width="120" height="120" viewBox="0 0 120 120" fill="none" xmlns="http://www.w3.org/2000/svg">
  <!-- Column 1 -->
  <g stroke="#222" stroke-width="2" fill="none">
    <path d="M15 10 v100"/>
  </g>
  <g fill="#222">
    <!-- Eye of Horus -->
    <path d="M11 25 Q15 20 19 25 Q15 30 11 25 Z"/>
    <circle cx="15" cy="25" r="2"/>
    <!-- Zigzag (water) -->
    <path d="M11 40 Q13 43 15 40 Q17 37 19 40" stroke="#222" stroke-width="2" fill="none"/>
    <path d="M11 45 Q13 48 15 45 Q17 42 19 45" stroke="#222" stroke-width="2" fill="none"/>
    <!-- Bird -->
    <path d="M12 60 Q15 55 18 60 Q15 65 12 60 Z"/>
    <rect x="13" y="70" width="4" height="8" rx="1"/>
    <!-- Reed -->
    <rect x="14" y="85" width="2" height="12" rx="1"/>
  </g>
  <!-- Column 2 -->
  <g stroke="#222" stroke-width="2" fill="none">
    <path d="M45 10 v100"/>
  </g>
  <g fill="#222">
    <!-- Throne -->
    <rect x="41" y="20" width="8" height="8" rx="2"/>
    <rect x="43" y="28" width="4" height="8" rx="1"/>
    <!-- Eye of Horus -->
    <path d="M41 45 Q45 40 49 45 Q45 50 41 45 Z"/>
    <circle cx="45" cy="45" r="2"/>
    <!-- Zigzag (water) -->
    <path d="M41 60 Q43 63 45 60 Q47 57 49 60" stroke="#222" stroke-width="2" fill="none"/>
    <path d="M41 65 Q43 68 45 65 Q47 62 49 65" stroke="#222" stroke-width="2" fill="none"/>
    <!-- Bird -->
    <path d="M42 80 Q45 75 48 80 Q45 85 42 80 Z"/>
    <rect x="43" y="90" width="4" height="8" rx="1"/>
  </g>
  <!-- Column 3 -->
  <g stroke="#222" stroke-width="2" fill="none">
    <path d="M75 10 v100"/>
  </g>
  <g fill="#222">
    <!-- Reed -->
    <rect x="74" y="15" width="2" height="12" rx="1"/>
    <!-- Bird -->
    <path d="M72 35 Q75 30 78 35 Q75 40 72 35 Z"/>
    <rect x="73" y="45" width="4" height="8" rx="1"/>
    <!-- Eye of Horus -->
    <path d="M71 60 Q75 55 79 60 Q75 65 71 60 Z"/>
    <circle cx="75" cy="60" r="2"/>
    <!-- Zigzag (water) -->
    <path d="M71 75 Q73 78 75 75 Q77 72 79 75" stroke="#222" stroke-width="2" fill="none"/>
    <path d="M71 80 Q73 83 75 80 Q77 77 79 80" stroke="#222" stroke-width="2" fill="none"/>
    <!-- Throne -->
    <rect x="71" y="90" width="8" height="8" rx="2"/>
    <rect x="73" y="98" width="4" height="8" rx="1"/>
  </g>
  <!-- Column 4 -->
  <g stroke="#222" stroke-width="2" fill="none">
    <path d="M105 10 v100"/>
  </g>
  <g fill="#222">
    <!-- Bird -->
    <path d="M102 25 Q105 20 108 25 Q105 30 102 25 Z"/>
    <rect x="103" y="35" width="4" height="8" rx="1"/>
    <!-- Reed -->
    <rect x="104" y="50" width="2" height="12" rx="1"/>
    <!-- Eye of Horus -->
    <path d="M101 70 Q105 65 109 70 Q105 75 101 70 Z"/>
    <circle cx="105" cy="70" r="2"/>
    <!-- Zigzag (water) -->
    <path d="M101 85 Q103 88 105 85 Q107 82 109 85" stroke="#222" stroke-width="2" fill="none"/>
    <path d="M101 90 Q103 93 105 90 Q107 87 109 90" stroke="#222" stroke-width="2" fill="none"/>
  </g>
</svg>
